<svg xmlns="http://www.w3.org/2000/svg" xmlns:xlink="http://www.w3.org/1999/xlink" version="1.1" x="0px" y="0px" viewBox="0 0 40 40" enable-background="new 0 0 40 40" xml:space="preserve"><path fill-rule="evenodd" clip-rule="evenodd" d="M12,10.5v-3H8v2h2v13c0,1.1,0.9,2,2,2v5h2.3c-0.2,0.3-0.3,0.6-0.3,1  c0,1.1,0.9,2,2,2c1.1,0,2-0.9,2-2c0-0.4-0.1-0.7-0.3-1h6.6c-0.2,0.3-0.3,0.6-0.3,1c0,1.1,0.9,2,2,2c1.1,0,2-0.9,2-2  c0-0.4-0.1-0.7-0.3-1H30v-2H14v-3h16c1.1,0,2-0.9,2-2v-12H12z M14,22.5h-2v-2h2V22.5z M14,18.5h-2v-2h2V18.5z M14,14.5h-2v-2h2V14.5  z M18,22.5h-2v-2h2V22.5z M18,18.5h-2v-2h2V18.5z M18,14.5h-2v-2h2V14.5z M22,22.5h-2v-2h2V22.5z M22,18.5h-2v-2h2V18.5z M22,14.5  h-2v-2h2V14.5z M26,22.5h-2v-2h2V22.5z M26,18.5h-2v-2h2V18.5z M26,14.5h-2v-2h2V14.5z M30,22.5h-2v-2h2V22.5z M30,18.5h-2v-2h2  V18.5z M30,14.5h-2v-2h2V14.5z"></path></svg>