<svg xmlns="http://www.w3.org/2000/svg" xmlns:xlink="http://www.w3.org/1999/xlink" version="1.1" x="0px" y="0px" viewBox="0 0 44 44" style="enable-background:new 0 0 44 44;" xml:space="preserve"><g><g><path d="M11,18H7c-0.553,0-1,0.448-1,1s0.447,1,1,1h4c0.553,0,1-0.448,1-1S11.553,18,11,18z"></path><circle cx="12" cy="31" r="1"></circle><circle cx="35" cy="31" r="1"></circle><circle cx="30" cy="22" r="1"></circle><circle cx="1" cy="35" r="1"></circle><path d="M42.8,20.6l-2.95-2.212l-2.445-7.336C36.995,9.824,35.852,9,34.559,9H29c-1.654,0-3,1.346-3,3v10h-2V9    c0-1.654-1.346-3-3-3h-5h-6H5C3.346,6,2,7.346,2,9v13H1c-0.553,0-1,0.448-1,1v6c0,1.654,1.346,3,3,3h4.116    c0.156,0.737,0.469,1.418,0.91,2H4c-0.553,0-1,0.448-1,1s0.447,1,1,1h8c2.414,0,4.434-1.721,4.899-4h13.217    c0.156,0.737,0.469,1.418,0.91,2H29c-0.553,0-1,0.448-1,1s0.447,1,1,1h6c2.414,0,4.434-1.721,4.899-4H41c1.654,0,3-1.346,3-3v-6    C44,22.069,43.554,21.173,42.8,20.6z M11,8h4v3.613l-1.684-0.562C13.214,11.017,13.106,11,13,11s-0.214,0.017-0.316,0.051    L11,11.613V8z M4,9c0-0.551,0.448-1,1-1h4v5c0,0.321,0.154,0.623,0.415,0.811c0.261,0.188,0.596,0.238,0.901,0.138L13,13.054    l2.684,0.895C15.787,13.983,15.894,14,16,14c0.207,0,0.412-0.064,0.585-0.189C16.846,13.623,17,13.321,17,13V8h4    c0.552,0,1,0.449,1,1v13H4V9z M12,34c-1.654,0-3-1.346-3-3s1.346-3,3-3s3,1.346,3,3S13.654,34,12,34z M26,30h-9.101    c-0.465-2.279-2.484-4-4.899-4s-4.435,1.721-4.899,4H3c-0.552,0-1-0.449-1-1v-5h1h20h3V30z M28,12c0-0.551,0.448-1,1-1h5.559    c0.431,0,0.812,0.275,0.949,0.684L37.612,18h-1.994l0.276-0.553c0.247-0.494,0.047-1.095-0.447-1.342    c-0.493-0.247-1.094-0.047-1.342,0.447L33.382,18H28V12z M35,34c-1.654,0-3-1.346-3-3s1.346-3,3-3s3,1.346,3,3S36.654,34,35,34z     M42,29c0,0.551-0.448,1-1,1h-1.101c-0.465-2.279-2.484-4-4.899-4s-4.435,1.721-4.899,4H28V20h10.667l2.928,2.196    C41.849,22.389,42,22.689,42,23V29z"></path></g></g></svg>