<svg xmlns="http://www.w3.org/2000/svg" xmlns:xlink="http://www.w3.org/1999/xlink" version="1.1" x="0px" y="0px" viewBox="0 0 100 100" enable-background="new 0 0 100 100" xml:space="preserve"><path d="M68.44,92.423c-0.828,0-1.5-0.672-1.5-1.5v-2.479c-1.116-9.38-8.065-14.412-20.656-14.957  c-0.802-0.035-1.435-0.696-1.435-1.499v-5.062c0-0.368,0.135-0.724,0.381-0.999c1.947-2.183,3.158-4.73,3.411-7.176l0.025-0.257  c0.038-0.439,0.268-0.84,0.628-1.095c0.307-0.217,0.682-0.307,1.048-0.266c0.438-0.34,1.291-1.771,1.664-4.124  c0.344-2.168,0.059-3.717-0.232-4.304c-0.415,0.119-0.874,0.067-1.24-0.166c-0.467-0.298-0.76-0.816-0.716-1.369  c0.38-4.781-0.227-11.16-5.275-14.402c-0.597-0.383-0.844-1.132-0.591-1.795c0.582-1.529,0.605-3.021,0.466-3.871  c-4.235,2.519-8.159,3.2-10.809,3.66l-0.62,0.109c-0.088,0.033-0.18,0.057-0.273,0.072C21.896,32.733,21.184,42.941,21.38,47.247  c0.025,0.556-0.259,1.08-0.738,1.361c-0.39,0.23-0.858,0.268-1.275,0.116c-0.288,0.6-0.564,2.139-0.223,4.285  c0.372,2.348,1.221,3.777,1.66,4.123c0.36-0.05,0.731,0.039,1.037,0.247c0.364,0.248,0.601,0.645,0.647,1.082l0.031,0.306  c0.251,2.422,1.46,4.968,3.403,7.15c0.244,0.274,0.379,0.63,0.379,0.997v5.073c0,0.803-0.633,1.464-1.435,1.499  c-12.59,0.545-19.539,5.577-20.655,14.957v0.979H63.5c0.828,0,1.5,0.672,1.5,1.5s-0.672,1.5-1.5,1.5H2.712  c-0.829,0-1.5-0.672-1.5-1.5v-2.567c0-0.058,0.003-0.114,0.01-0.171c1.217-10.589,8.84-16.658,22.08-17.613v-3.099  c-1.952-2.327-3.201-4.913-3.65-7.552c-1.811-0.835-3.03-3.663-3.471-6.441c-0.274-1.728-0.255-3.42,0.054-4.764  c0.449-1.951,1.387-2.692,2.119-2.968c0.095-9.651,5.106-16.209,13.639-17.723c0.089-0.033,0.182-0.057,0.275-0.071l0.827-0.147  c2.729-0.474,6.467-1.123,10.491-3.718c0.844-0.545,1.837-0.505,2.59,0.104c1.459,1.181,1.599,4.175,0.937,6.72  c4.008,3.08,5.989,8.177,5.784,14.875c0.714,0.305,1.589,1.065,2.018,2.928c0.309,1.344,0.328,3.036,0.054,4.764  c-0.44,2.78-1.663,5.612-3.463,6.446c-0.453,2.651-1.704,5.236-3.657,7.56v3.086c13.241,0.955,20.865,7.024,22.082,17.613  c0.007,0.057,0.01,0.113,0.01,0.171v2.567C69.94,91.751,69.269,92.423,68.44,92.423z"></path><path d="M64.322,41.254c-0.187,0-0.375-0.035-0.555-0.106c-0.57-0.227-0.945-0.779-0.945-1.394V28.81c0-0.829,0.672-1.5,1.5-1.5  s1.5,0.671,1.5,1.5v7.174l7.757-8.205c0.283-0.3,0.678-0.47,1.09-0.47h18.814c1.251,0,2.269-1.018,2.269-2.268V8.352  c0-1.25-1.018-2.268-2.269-2.268H59.641c-1.251,0-2.269,1.018-2.269,2.268v16.69c0,1.25,1.018,2.268,2.269,2.268  c0.828,0,1.5,0.671,1.5,1.5s-0.672,1.5-1.5,1.5c-2.905,0-5.269-2.363-5.269-5.268V8.352c0-2.905,2.363-5.268,5.269-5.268h33.843  c2.905,0,5.269,2.363,5.269,5.268v16.69c0,2.905-2.363,5.268-5.269,5.268H75.315l-9.903,10.475  C65.123,41.091,64.727,41.254,64.322,41.254z"></path></svg>