<svg xmlns="http://www.w3.org/2000/svg" xmlns:xlink="http://www.w3.org/1999/xlink" version="1.1" x="0px" y="0px" viewBox="0 0 100 100" enable-background="new 0 0 100 100" xml:space="preserve"><path d="M50.1,11.4c-21.1,0-38.2,17.1-38.2,38.2c0,21.1,17.1,38.2,38.2,38.2s38.2-17.1,38.2-38.2C88.3,28.5,71.1,11.4,50.1,11.4z   M50.1,84.1c-19,0-34.5-15.5-34.5-34.5S31,15.1,50.1,15.1s34.5,15.5,34.5,34.5S69.1,84.1,50.1,84.1z M51.7,68.1c0,1.1-0.9,2-2,2  c-1.1,0-2-0.9-2-2c0-1.1,0.9-2,2-2C50.8,66.1,51.7,67,51.7,68.1z M60,40.9c0,3.5-2,6.7-5.7,8.9c-2.7,1.6-2.6,3.5-2.6,3.6  c0,0,0,0.1,0,0.2v4.6c0,1-0.8,1.8-1.8,1.8S48,59.2,48,58.2v-4.5c-0.1-1.6,0.7-4.7,4.3-6.9c1.8-1.1,3.9-3,3.9-5.8  c0-3.4-2.8-6.2-6.2-6.2c-3.4,0-6.2,2.8-6.2,6.2c0,1-0.8,1.8-1.8,1.8c-1,0-1.8-0.8-1.8-1.8c0-5.5,4.4-9.9,9.9-9.9S60,35.4,60,40.9z"></path></svg>