<svg xmlns="http://www.w3.org/2000/svg" xmlns:xlink="http://www.w3.org/1999/xlink" version="1.1" x="0px" y="0px" viewBox="0 0 32 32" enable-background="new 0 0 32 32" xml:space="preserve"><g><path d="M27.4560547,16c-0.2080078,0-0.4169922,0.0258789-0.6201172,0.0766602l-6.078125,1.5195313   C20.3125,17.7075195,20,18.1074219,20,18.5664063V23c0,0.3789063,0.2138672,0.7250977,0.5527344,0.8945313l1.5888672,0.7944336   l0.8886719,3.5537109C23.1425781,28.6948242,23.5488281,29,23.9990234,29c0.0654297,0,0.1308594-0.0063477,0.1972656-0.0195313   l3.0615234-0.6123047C28.8466797,28.050293,30,26.6430664,30,25.0224609v-6.4746094C30,17.1430664,28.8583984,16,27.4560547,16z    M28,22c0,1.1044922-0.8955078,2-2,2s-2-0.8955078-2-2v-2c0-1.1044922,0.8955078-2,2-2s2,0.8955078,2,2V22z"></path><path d="M20.1054688,24.7890625C19.4238281,24.4482422,19,23.7626953,19,23v-3.579834L2.7832031,23.0239258   C2.3251953,23.1254883,2,23.53125,2,24v5c0,0.4042969,0.2431641,0.769043,0.6171875,0.9238281   C2.7412109,29.9750977,2.8710938,30,3,30c0.2597656,0,0.515625-0.1015625,0.7070313-0.2929688L5,28.4140625l1.2929688,1.2929688   c0.390625,0.390625,1.0234375,0.390625,1.4140625,0L9,28.4140625l1.2929688,1.2929688   c0.390625,0.390625,1.0234375,0.390625,1.4140625,0L13,28.4140625l1.2929688,1.2929688   c0.390625,0.390625,1.0234375,0.390625,1.4140625,0L17,28.4140625l1.2929688,1.2929688   c0.390625,0.390625,1.0234375,0.390625,1.4140625,0L21.4140625,28h0.5245361l-0.6553955-2.6220703L20.1054688,24.7890625z"></path><path d="M5,10c0.675293,0,1.2988281-0.2241211,1.800293-0.6020508C7.5307617,10.3701172,8.6933594,11,10,11   c1.1933594,0,2.2666016-0.5253906,3-1.3569336C13.7333984,10.4746094,14.8066406,11,16,11s2.2666016-0.5253906,3-1.3569336   C19.7333984,10.4746094,20.8066406,11,22,11c1.3066406,0,2.4692383-0.6298828,3.199707-1.6020508   C25.7011719,9.7758789,26.324707,10,27,10c1.6542969,0,3-1.3457031,3-3c0-0.2163086-0.0703125-0.4267578-0.2001953-0.6000977l-3-4   C26.6113281,2.1479492,26.3149414,2,26,2h-2.1941528l1.6751099,5.862793c0.0756836,0.2651367-0.078125,0.5419922-0.34375,0.6181641   C25.0913086,8.4936523,25.0454102,8.5,24.9995117,8.5c-0.2172852,0-0.4174805-0.1430664-0.4804688-0.362793L22.765564,2h-4.1174927   l0.8470459,5.9291992c0.0390625,0.2734375-0.1508789,0.5268555-0.4243164,0.565918   C19.046875,8.4985352,19.0229492,8.5,18.9995117,8.5c-0.2451172,0-0.4589844-0.1796875-0.4946289-0.4291992L17.6376343,2   h-3.2752686l-0.8672485,6.0708008C13.4594727,8.3203125,13.2456055,8.5,13.0004883,8.5   c-0.0234375,0-0.0473633-0.0014648-0.0712891-0.0048828c-0.2734375-0.0390625-0.4633789-0.2924805-0.4243164-0.565918L13.3519287,2   h-3.2366943L7.4594727,8.1967773C7.378418,8.3867188,7.1938477,8.5,7,8.5c-0.065918,0-0.1328125-0.0126953-0.1967773-0.0405273   c-0.2539063-0.1088867-0.371582-0.402832-0.2626953-0.65625L9.0276489,2H6C5.6850586,2,5.3886719,2.1479492,5.2001953,2.3999023   l-3,4C2.0703125,6.5732422,2,6.7836914,2,7C2,8.6542969,3.3457031,10,5,10z"></path><path d="M26.5932617,15.1064453C26.8759766,15.0356445,27.1665039,15,27.4560547,15   C27.642334,15,27.8214111,15.0272217,28,15.0550537v-4.1970825C27.6784668,10.9415283,27.34729,11,27,11   c-0.5600586,0-1.1025391-0.1142578-1.6035156-0.3344727C24.4785156,11.5126953,23.2612305,12,22,12   c-1.0893555,0-2.1411133-0.3574219-3-1.0024414C18.1411133,11.6425781,17.0893555,12,16,12s-2.1411133-0.3574219-3-1.0024414   C12.1411133,11.6425781,11.0893555,12,10,12c-1.2612305,0-2.4785156-0.4873047-3.3964844-1.3344727   C6.1025391,10.8857422,5.5600586,11,5,11c-0.34729,0-0.6784668-0.0584717-1-0.1420288v10.8713989l3-0.666748V15   c0-0.5522461,0.4477539-1,1-1h4c0.5522461,0,1,0.4477539,1,1v4.7290649l2-0.444458V15c0-0.5522461,0.4477539-1,1-1h8   c0.5522461,0,1,0.4477539,1,1v0.5047607L26.5932617,15.1064453z"></path></g></svg>