<svg xmlns="http://www.w3.org/2000/svg" xmlns:xlink="http://www.w3.org/1999/xlink" version="1.1" x="0px" y="0px" viewBox="0 0 100 100" style="enable-background:new 0 0 100 100;" xml:space="preserve"><path d="M50,5.2c-21.2,0-38.3,17.2-38.3,38.3c0,16.9,10.9,31.2,26.1,36.3L50,94.8l12.2-14.9c15.2-5.1,26.1-19.4,26.1-36.3  C88.3,22.4,71.2,5.2,50,5.2z M66.8,51.9c-2.2,2.2-4.4,3.3-6.6,3.3c-0.2,0-0.5,0-0.7,0c-3-0.3-4.9-2.7-5.3-3.3  c-1.8-1.7-3.5-2.5-5-2.4c-2.1,0.2-3.4,2.2-3.4,2.2c0,0,0,0,0,0c0,0-0.1,0.1-0.1,0.1c0,0,0,0,0,0c0,0,0,0-0.1,0.1c0,0,0,0,0,0  c0,0,0,0,0,0c-2.2,2.1-4.4,3.2-6.5,3.2c-0.2,0-0.5,0-0.7,0C35,54.7,33,51.8,33,51.6c-0.4-0.6-0.2-1.5,0.4-1.9  c0.6-0.4,1.5-0.2,1.9,0.4c0,0,1.4,2,3.5,2.2c1.5,0.2,3.2-0.6,5-2.4c0.4-0.6,2.3-3,5.3-3.3c2.4-0.3,4.9,0.8,7.3,3.2c0,0,0,0,0,0  c0,0,0,0,0.1,0.1c0,0,0,0,0,0c0,0,0,0,0,0c0,0,0,0,0.1,0.1c0,0,0,0,0,0c0,0,1.4,2,3.5,2.2c1.6,0.2,3.3-0.7,5.1-2.5  c0.5-0.5,1.4-0.5,1.9,0C67.4,50.5,67.4,51.3,66.8,51.9z M72.1,38.4c-2.2,2.2-4.4,3.3-6.6,3.3c-0.2,0-0.5,0-0.7,0  c-3-0.3-4.9-2.7-5.3-3.3c-1.8-1.7-3.5-2.5-5-2.4c-2.1,0.2-3.4,2.2-3.4,2.2c0,0,0,0,0,0c0,0-0.1,0.1-0.1,0.1c0,0,0,0,0,0  c0,0,0,0-0.1,0.1c0,0,0,0,0,0c0,0,0,0,0,0c-2.2,2.1-4.4,3.2-6.5,3.2c-0.2,0-0.5,0-0.7,0c-3-0.3-4.9-2.7-5.3-3.3  c-1.8-1.7-3.5-2.5-5-2.4c-2.1,0.2-3.4,2.2-3.4,2.2c-0.3,0.4-0.7,0.6-1.1,0.6c-0.2,0-0.5-0.1-0.7-0.2c-0.6-0.4-0.8-1.2-0.4-1.9  c0.1-0.1,2-3.1,5.4-3.5c2.4-0.3,4.9,0.8,7.3,3.2c0,0,0,0,0,0c0,0,0,0,0.1,0.1c0,0,0,0,0,0c0,0,0,0,0,0c0,0,0,0,0.1,0.1c0,0,0,0,0,0  c0,0,1.4,2,3.5,2.2c1.5,0.2,3.2-0.6,5-2.4c0.4-0.6,2.3-3,5.3-3.3c2.4-0.3,4.9,0.8,7.3,3.2c0,0,0,0,0,0c0,0,0,0,0.1,0.1c0,0,0,0,0,0  c0,0,0,0,0,0c0,0,0,0,0.1,0.1c0,0,0,0,0,0c0,0,1.4,2,3.5,2.2c1.6,0.2,3.3-0.7,5.1-2.5c0.5-0.5,1.4-0.5,1.9,0  C72.7,37,72.7,37.9,72.1,38.4z"></path></svg>