<svg xmlns="http://www.w3.org/2000/svg" xmlns:xlink="http://www.w3.org/1999/xlink" version="1.1" x="0px" y="0px" viewBox="0 0 100 100" enable-background="new 0 0 100 100" xml:space="preserve"><path fill-rule="evenodd" clip-rule="evenodd" d="M72.839,13.553c1.102,0.867,2.158,1.83,3.166,2.885  c7.297,7.25,10.945,15.988,10.945,26.217c0,10.182-3.648,18.875-10.945,26.076c-0.117,0.164-0.234,0.387-0.352,0.67  c-0.281,0.164-0.539,0.398-0.773,0.703L53.976,92.098c-2.697,3.072-5.36,3.072-7.988,0L24.345,69.225  c-0.117-0.164-0.234-0.33-0.352-0.494C16.697,61.529,13.05,52.836,13.05,42.654c0-10.229,3.647-18.967,10.943-26.217  c1.01-1.055,2.088-2.018,3.238-2.885C33.683,8.25,41.296,5.6,50.069,5.6C58.75,5.6,66.34,8.25,72.839,13.553z M58.516,22.385  c2.581,1.104,4.868,2.674,6.862,4.717c1.994,2.041,3.555,4.363,4.68,6.967c1.127,2.721,1.689,5.584,1.689,8.586  c0,3.004-0.563,5.865-1.689,8.588c-1.125,2.604-2.686,4.926-4.68,6.967s-4.281,3.625-6.862,4.75  c-1.665,0.682-3.378,1.162-5.138,1.443c2.839-1.643,4.234-3.318,4.188-5.031c-0.047-1.244-0.445-2.406-1.197-3.484  c-0.516-0.773-1.336-1.619-2.463-2.533c-1.407-1.127-2.252-1.842-2.533-2.146c-0.703-0.775-1.08-1.537-1.126-2.287  c0-0.682,0.657-1.268,1.97-1.76c0.893-0.354,2.335-0.729,4.329-1.127c2.253-0.469,3.671-0.785,4.259-0.949  c1.336-0.4,2.006-0.822,2.006-1.268c0-0.492-0.693-0.975-2.077-1.443c-0.868-0.281-2.299-0.668-4.293-1.16  c-2.44-0.471-3.93-0.764-4.47-0.881c-1.313-0.375-1.971-0.715-1.971-1.02c0-0.494,1.021-1.092,3.063-1.795  c1.172-0.4,1.889-0.67,2.146-0.811c0.145-0.061,0.273-0.119,0.387-0.176c-1.433,0.223-3.608,0.498-6.527,0.828  c-2.991,0.34-4.521,0.967-4.593,1.883c-0.047,0.563,0.375,1.066,1.267,1.512c0.586,0.305,1.549,0.623,2.886,0.951  c0.704,0.211,1.677,0.434,2.921,0.668c0.892,0.281,1.338,0.539,1.338,0.775c0.047,0.281-0.74,0.563-2.358,0.844  c-2.205,0.352-3.918,0.668-5.138,0.949c-5.044,0.939-7.566,2.205-7.566,3.801c0,0.799,0.152,1.502,0.458,2.111  c0.164,0.4,0.446,0.834,0.845,1.303c0.492,0.516,0.797,0.893,0.914,1.127c0.282,0.445,0.376,0.949,0.282,1.512  c-0.023,1.08-1.36,1.9-4.013,2.465c-0.68,0.164-1.406,0.305-2.181,0.422c-1.76-1.924-3.132-4.07-4.118-6.439  c-1.125-2.723-1.688-5.584-1.688-8.588c0-3.002,0.563-5.865,1.688-8.586c1.104-2.604,2.663-4.926,4.681-6.967  c1.995-2.043,4.294-3.613,6.897-4.717c2.675-1.125,5.479-1.689,8.41-1.689C52.956,20.695,55.794,21.26,58.516,22.385z   M82.058,42.549c0-8.797-3.143-16.34-9.431-22.627c-6.287-6.287-13.853-9.432-22.698-9.432c-8.797,0-16.34,3.145-22.627,9.432  s-9.432,13.83-9.432,22.627c0,8.799,3.145,16.34,9.432,22.627c6.287,6.289,13.83,9.432,22.627,9.432  c8.846,0,16.411-3.143,22.698-9.432C78.915,58.889,82.058,51.348,82.058,42.549z"></path></svg>