<svg xmlns="http://www.w3.org/2000/svg" xmlns:xlink="http://www.w3.org/1999/xlink" version="1.1" x="0px" y="0px" viewBox="0 0 100 100" enable-background="new 0 0 100 100" xml:space="preserve"><path d="M79.709,25.188l0.001-10.347c0-2.797-1.702-5.197-4.127-6.221c-0.808-0.342-1.697-0.532-2.631-0.532L50.022,8.089  L27.047,8.088c-0.933,0-1.822,0.189-2.631,0.532c-2.425,1.024-4.127,3.423-4.126,6.221l0.001,10.347h0.006L20.289,85.16  c0,3.727,3.021,6.749,6.748,6.749l11.869,0.001c-0.001,0.001-0.001,0.001-0.002,0.002l11.11-0.001l11.081,0.001  c-0.001-0.001-0.001-0.001-0.002-0.002l11.869-0.001c3.727,0,6.749-3.022,6.748-6.749l-0.007-59.973H79.709z M53.268,88.404h-6.536  c-0.97,0-1.756-0.786-1.756-1.756c0-0.34,0.098-0.656,0.265-0.925c0.071-0.115,0.154-0.222,0.249-0.317  c0.318-0.318,0.757-0.514,1.242-0.514h6.536c0.667,0,1.247,0.372,1.544,0.919c0.135,0.249,0.212,0.534,0.212,0.837  c0,0.303-0.077,0.588-0.212,0.837C54.515,88.032,53.935,88.404,53.268,88.404z M75.385,79.263c0,1.192-0.966,2.158-2.158,2.158  H58.118l-31.346,0c-1.192,0-2.158-0.966-2.158-2.158V25.188h0V19.35c0-0.794,0.43-1.486,1.069-1.861  c0.26-0.152,0.553-0.254,0.868-0.286c0.072-0.007,0.146-0.011,0.221-0.011h46.455c0.428,0,0.826,0.126,1.162,0.342  c0.598,0.384,0.996,1.053,0.996,1.816v5.838h0V79.263z M50,31.984c-9.95,0-18.016,8.066-18.016,18.016S40.05,68.016,50,68.016  S68.016,59.95,68.016,50S59.95,31.984,50,31.984z M55.174,57.105c-0.787,0.956-1.809,1.598-3.004,1.926  c-0.521,0.143-0.754,0.416-0.73,0.957c0.023,0.531-0.003,1.064-0.004,1.596c-0.001,0.475-0.243,0.729-0.711,0.741  c-0.572,0.014-1.146,0.014-1.718,0.004c-0.502-0.009-0.738-0.294-0.744-0.784c-0.005-0.389-0.007-0.778-0.011-1.166  c-0.009-0.857-0.036-0.893-0.861-1.024c-1.056-0.167-2.091-0.408-3.058-0.876c-0.759-0.368-0.837-0.558-0.619-1.353  c0.162-0.592,0.325-1.185,0.509-1.77c0.213-0.68,0.397-0.766,1.023-0.44c1.068,0.556,2.204,0.868,3.392,1.017  c0.767,0.096,1.515,0.018,2.226-0.292c1.324-0.578,1.532-2.115,0.413-3.036c-0.381-0.314-0.813-0.544-1.266-0.744  c-1.16-0.51-2.373-0.901-3.469-1.557c-1.779-1.066-2.908-2.528-2.776-4.694c0.149-2.449,1.533-3.976,3.778-4.792  c0.926-0.337,0.931-0.324,0.936-1.291c0.002-0.327-0.004-0.655,0.004-0.982c0.019-0.73,0.143-0.855,0.867-0.876  c0.225-0.007,0.45-0.001,0.675-0.001c1.548-0.002,1.548-0.002,1.554,1.547c0.005,1.094,0.004,1.099,1.095,1.27  c0.835,0.131,1.632,0.377,2.405,0.717c0.426,0.188,0.586,0.485,0.456,0.934c-0.194,0.668-0.375,1.341-0.589,2.002  c-0.202,0.626-0.402,0.717-1.003,0.426c-1.208-0.585-2.476-0.828-3.811-0.756c-0.351,0.019-0.692,0.066-1.016,0.208  c-1.154,0.504-1.34,1.777-0.359,2.563c0.496,0.398,1.065,0.686,1.654,0.93c1.021,0.423,2.05,0.828,3.019,1.365  C56.517,50.583,57.35,54.462,55.174,57.105z"></path></svg>