<svg xmlns="http://www.w3.org/2000/svg" xmlns:xlink="http://www.w3.org/1999/xlink" version="1.1" x="0px" y="0px" viewBox="0 0 100 100" enable-background="new 0 0 100 100" xml:space="preserve"><path d="M31.533,68.545c0.4,0,0.78-0.16,1.061-0.439c0.279-0.28,0.439-0.67,0.439-1.061c0-0.39-0.16-0.78-0.439-1.06  c-0.561-0.561-1.561-0.561-2.121,0c-0.279,0.279-0.439,0.67-0.439,1.06c0,0.391,0.16,0.78,0.439,1.061  C30.754,68.385,31.143,68.545,31.533,68.545z M74.351,60.388c-0.516-2.022-2.298-3.381-4.434-3.381  c-0.494,0-1.002,0.072-1.541,0.225l-8.83,2.708c0.022-0.134,0.04-0.269,0.052-0.406c0.203-2.296-1.126-4.229-3.47-4.946  l-8.419-2.069c-0.453-0.099-0.924-0.149-1.4-0.149c-1.262,0-2.407,0.343-3.516,0.674c-1.083,0.323-2.105,0.629-3.225,0.629  c-0.55,0-1.323,0.003-2.008,0.006v-1.562c0-0.828-0.671-1.5-1.5-1.5H27.01c-0.828,0-1.5,0.672-1.5,1.5v20.303  c0,0.828,0.672,1.5,1.5,1.5h9.051c0.829,0,1.5-0.672,1.5-1.5v-1.988h4.669c0.648,0,1.801,0.188,2.426,0.398l7.755,2.542  c0.428,0.143,0.913,0.215,1.443,0.215c0.884,0,1.761-0.203,2.42-0.561l15.555-7.364C73.891,64.535,74.88,62.466,74.351,60.388z   M34.561,70.917H28.51V53.614h6.051V70.917z M70.469,62.987l-15.521,7.345c-0.033,0.015-0.064,0.032-0.097,0.05  c-0.173,0.098-0.559,0.202-0.998,0.202c-0.288,0-0.449-0.046-0.5-0.063L45.6,67.979c-0.936-0.314-2.384-0.551-3.37-0.551h-4.669  V56.677c0.683-0.003,1.459-0.006,2.008-0.006c1.558,0,2.899-0.4,4.084-0.755c0.983-0.294,1.833-0.548,2.656-0.548  c0.265,0,0.513,0.026,0.722,0.072l8.299,2.037c1.219,0.375,1.325,1.283,1.28,1.791c-0.063,0.715-0.533,1.487-1.212,1.573  c-0.131,0.008-0.255,0.013-0.369,0.014l-7.535-0.805c-0.811-0.088-1.562,0.508-1.65,1.332c-0.006,0.054-0.009,0.107-0.009,0.16  c-0.001,0.757,0.57,1.408,1.341,1.49l7.619,0.814c0.026,0.003,0.053,0.005,0.079,0.007c0.273,0.016,0.58,0.001,0.696-0.018  c0.885-0.051,1.954-0.196,2.756-0.389l10.898-3.339c0.242-0.068,0.476-0.103,0.693-0.103c0.915,0,1.395,0.604,1.526,1.122  C71.532,61.479,71.608,62.362,70.469,62.987z M56.821,43.524v1.205c0,0.165,0.134,0.299,0.3,0.299h1.188  c0.166,0,0.3-0.134,0.3-0.299v-1.209c0.877-0.131,1.591-0.457,2.124-0.971c0.6-0.577,0.903-1.35,0.903-2.297  c0-0.99-0.308-1.783-0.915-2.361c-0.578-0.548-1.45-1.014-2.569-1.377c-0.729-0.305-1.042-0.533-1.176-0.672  c-0.167-0.172-0.248-0.404-0.248-0.709c0-0.344,0.079-0.604,0.238-0.791c0.152-0.176,0.419-0.264,0.792-0.264  c0.354,0,0.616,0.107,0.805,0.333c0.199,0.233,0.3,0.589,0.3,1.058c0,0.165,0.134,0.299,0.3,0.299h2.129  c0.121,0,0.245-0.109,0.292-0.221c0.015-0.035,0.022-0.072,0.023-0.11c0.019-0.995-0.256-1.82-0.813-2.449  c-0.501-0.571-1.185-0.943-2.034-1.106v-1.369c0-0.166-0.134-0.301-0.3-0.301h-1.187c-0.166,0-0.3,0.135-0.3,0.301v1.336  c-0.873,0.133-1.587,0.467-2.123,0.997c-0.6,0.592-0.903,1.358-0.903,2.278c0,0.994,0.307,1.783,0.91,2.343  c0.573,0.53,1.452,0.997,2.6,1.383c0.556,0.216,0.938,0.431,1.139,0.642c0.182,0.189,0.27,0.443,0.27,0.777  c0,0.332-0.091,0.581-0.281,0.764c-0.184,0.18-0.482,0.271-0.888,0.271c-0.428,0-0.76-0.108-1.016-0.332  c-0.241-0.21-0.364-0.593-0.364-1.139c0-0.166-0.134-0.301-0.3-0.301h-2.123c-0.116,0-0.244,0.113-0.293,0.219  c-0.018,0.038-0.027,0.08-0.028,0.121c-0.023,1.152,0.31,2.045,0.99,2.654C55.163,43.065,55.923,43.401,56.821,43.524z   M57.607,49.159c6.362,0,11.538-5.176,11.538-11.539c0-6.361-5.176-11.537-11.538-11.537S46.069,31.259,46.069,37.62  C46.069,43.983,51.245,49.159,57.607,49.159z M57.607,29.083c4.708,0,8.538,3.83,8.538,8.537c0,4.709-3.83,8.539-8.538,8.539  s-8.538-3.83-8.538-8.539C49.069,32.913,52.899,29.083,57.607,29.083z"></path></svg>