<svg xmlns="http://www.w3.org/2000/svg" width="128" height="128" viewBox="0 0 128 128">
  <title>BRIDGE</title>
  <g>
    <g>
      <g>
        <path d="M106.655,67.218a66.619,66.619,0,0,0-3.323-10H24.668a66.619,66.619,0,0,0-3.323,10Z" fill="#f3f5f9"/>
        <path d="M13.981,57.218H1.75v10H11.1A77.524,77.524,0,0,1,13.981,57.218Z" fill="#f3f5f9"/>
        <path d="M114.019,57.218a77.524,77.524,0,0,1,2.883,10h9.348v-10Z" fill="#f3f5f9"/>
      </g>
      <path d="M118.683,81.327C117.306,45.675,93.308,17.191,64,17.191S10.693,45.676,9.317,81.328a14.986,14.986,0,0,0,7.993,2.109,18.519,18.519,0,0,0,1.964-.107C19.789,52.264,39.647,27.191,64,27.191s44.211,25.073,44.726,56.14a18.684,18.684,0,0,0,1.958.106A15.006,15.006,0,0,0,118.683,81.327Z" fill="#e1e6f0"/>
      <path d="M126.25,89.445c-7.783,0-7.783,4-15.566,4s-7.783-4-15.566-4-7.783,4-15.565,4-7.781-4-15.563-4-7.779,4-15.558,4-7.781-4-15.562-4-7.78,4-15.56,4-7.78-4-15.56-4V79.437c7.78,0,7.78,4,15.56,4s7.78-4,15.56-4,7.781,4,15.562,4,7.779-4,15.558-4,7.782,4,15.563,4,7.782-4,15.565-4,7.783,4,15.566,4,7.783-4,15.566-4Z" fill="#7986cb"/>
      <path d="M126.25,99.453c-7.783,0-7.783,4-15.566,4s-7.783-4-15.566-4-7.783,4-15.565,4-7.781-4-15.563-4-7.779,4-15.558,4-7.781-4-15.562-4-7.78,4-15.56,4-7.78-4-15.56-4V89.445c7.78,0,7.78,4,15.56,4s7.78-4,15.56-4,7.781,4,15.562,4,7.779-4,15.558-4,7.782,4,15.563,4,7.782-4,15.565-4,7.783,4,15.566,4,7.783-4,15.566-4Z" fill="#5c6bc0"/>
      <path d="M126.25,99.453v11.356H1.75V99.453c7.78,0,7.78,4,15.56,4s7.78-4,15.56-4,7.781,4,15.562,4,7.779-4,15.558-4,7.782,4,15.563,4,7.782-4,15.565-4,7.783,4,15.566,4S118.467,99.453,126.25,99.453Z" fill="#7986cb"/>
      <path d="M64,27.191a35.121,35.121,0,0,0-4,.24V57.218h8V27.431A35.121,35.121,0,0,0,64,27.191Z" fill="#4d5e80"/>
      <path d="M40.127,36.078v21.14h8V30.936A41.785,41.785,0,0,0,40.127,36.078Z" fill="#4d5e80"/>
      <path d="M87.873,36.078v21.14h-8V30.936A41.785,41.785,0,0,1,87.873,36.078Z" fill="#4d5e80"/>
    </g>
    <g>
      <path d="M41.25,68.968H47a1.75,1.75,0,0,0,0-3.5H41.25a1.75,1.75,0,0,0,0,3.5Z"/>
      <path d="M126.25,68.968a1.749,1.749,0,0,0,1.75-1.75v-10a1.75,1.75,0,0,0-1.75-1.75H115.275C106.287,31.74,86.656,15.441,64,15.441s-42.277,16.3-51.269,40.027H1.75A1.75,1.75,0,0,0,0,57.218v10a1.749,1.749,0,0,0,1.75,1.75H8.962a83.844,83.844,0,0,0-1.239,9.714,16.432,16.432,0,0,0-5.973-1A1.75,1.75,0,0,0,0,79.437v31.372a1.75,1.75,0,0,0,1.75,1.75h124.5a1.75,1.75,0,0,0,1.75-1.75V79.437a1.75,1.75,0,0,0-1.75-1.75,16.416,16.416,0,0,0-5.97.994,84.017,84.017,0,0,0-1.24-9.713Zm-1.75-10v6.5h-6.195q-.776-3.323-1.807-6.5ZM64,18.941c21.425,0,39.964,15.741,48.3,38.575a1.716,1.716,0,0,0,.189.534,76.167,76.167,0,0,1,2.693,9.471c.007.041.017.08.027.121a80.362,80.362,0,0,1,1.663,12.64,12.469,12.469,0,0,1-6.188,1.405c-.095,0-.174-.007-.266-.008a73.729,73.729,0,0,0-2.042-14.742,1.646,1.646,0,0,0-.047-.2,68.063,68.063,0,0,0-3.347-10.08,1.747,1.747,0,0,0-.088-.214,60.341,60.341,0,0,0-8.305-14.026C87.84,31.47,76.266,25.441,64,25.441s-23.85,6.034-32.6,16.99a60.4,60.4,0,0,0-8.295,14.014,1.714,1.714,0,0,0-.087.212,68.093,68.093,0,0,0-3.349,10.085,1.765,1.765,0,0,0-.045.194,73.739,73.739,0,0,0-2.042,14.742c-.094,0-.176.009-.272.009a12.459,12.459,0,0,1-6.182-1.4A80.238,80.238,0,0,1,12.8,67.626c.007-.031.015-.062.021-.093a75.9,75.9,0,0,1,2.705-9.5,1.737,1.737,0,0,0,.177-.5C24.034,34.693,42.582,18.941,64,18.941Zm36.532,36.527H89.623V40.081A54.051,54.051,0,0,1,100.532,55.468Zm-14.409,0h-4.5V33.93a41.18,41.18,0,0,1,4.5,3.082Zm-8,0H69.75V29.462a34.633,34.633,0,0,1,8.373,2.629Zm-11.873,0h-4.5V29.021c.746-.051,1.495-.08,2.25-.08s1.5.029,2.25.08Zm-8,0H49.877V32.09a34.63,34.63,0,0,1,8.373-2.628Zm-11.873,0h-4.5V37.009a41.075,41.075,0,0,1,4.5-3.081Zm-8,0H27.466a54,54,0,0,1,10.911-15.39Zm-15.608,13.5h9.106a1.75,1.75,0,0,0,0-3.5h-8.2a64.414,64.414,0,0,1,2.243-6.5h76.163a64.915,64.915,0,0,1,2.243,6.5H56.375a1.75,1.75,0,0,0,0,3.5H105.23A69.2,69.2,0,0,1,106.9,81.226a16.155,16.155,0,0,1-3.2-1.346,17.889,17.889,0,0,0-17.164,0,14.394,14.394,0,0,1-13.965,0,16.5,16.5,0,0,0-8.581-2.193,16.493,16.493,0,0,0-8.58,2.194,13,13,0,0,1-6.977,1.806,13.022,13.022,0,0,1-6.982-1.806,16.491,16.491,0,0,0-8.581-2.194,16.493,16.493,0,0,0-8.58,2.194A16.227,16.227,0,0,1,21.1,81.224,69.266,69.266,0,0,1,22.769,68.968ZM3.5,65.468v-6.5h8.007q-1.032,3.174-1.809,6.5Zm121,43.591H3.5v-7.774a13.077,13.077,0,0,1,5.23,1.725,16.5,16.5,0,0,0,8.58,2.193,16.493,16.493,0,0,0,8.58-2.194,13.011,13.011,0,0,1,6.98-1.806,13.022,13.022,0,0,1,6.982,1.806,16.491,16.491,0,0,0,8.581,2.194,16.484,16.484,0,0,0,8.578-2.194A13.01,13.01,0,0,1,63.99,101.2a13.022,13.022,0,0,1,6.982,1.806,17.882,17.882,0,0,0,17.164,0,14.4,14.4,0,0,1,13.965,0,17.893,17.893,0,0,0,17.166,0,13.087,13.087,0,0,1,5.233-1.725Zm0-21.288a16.513,16.513,0,0,0-6.833,2.117,13.018,13.018,0,0,1-6.983,1.807,1.75,1.75,0,0,0,0,3.5A16.523,16.523,0,0,0,119.267,93a13.071,13.071,0,0,1,5.233-1.726v6.5a16.513,16.513,0,0,0-6.833,2.117,14.4,14.4,0,0,1-13.967,0,17.889,17.889,0,0,0-17.164,0,14.394,14.394,0,0,1-13.965,0A16.514,16.514,0,0,0,63.99,97.7,16.5,16.5,0,0,0,55.41,99.9a13,13,0,0,1-6.977,1.806A13.012,13.012,0,0,1,41.451,99.9,16.511,16.511,0,0,0,32.87,97.7,16.5,16.5,0,0,0,24.29,99.9a13.016,13.016,0,0,1-6.98,1.806A13.016,13.016,0,0,1,10.33,99.9,16.5,16.5,0,0,0,3.5,97.779v-6.5A13.061,13.061,0,0,1,8.73,93,16.507,16.507,0,0,0,17.31,95.2,16.5,16.5,0,0,0,25.89,93,13.011,13.011,0,0,1,32.87,91.2,13.022,13.022,0,0,1,39.852,93,16.5,16.5,0,0,0,48.433,95.2,16.494,16.494,0,0,0,57.011,93,13.01,13.01,0,0,1,63.99,91.2,13.022,13.022,0,0,1,70.972,93a17.882,17.882,0,0,0,17.164,0A13.015,13.015,0,0,1,95.117,91.2a1.75,1.75,0,1,0,0-3.5,16.508,16.508,0,0,0-8.581,2.193,14.394,14.394,0,0,1-13.965,0A16.5,16.5,0,0,0,63.99,87.7a16.493,16.493,0,0,0-8.58,2.194A13,13,0,0,1,48.433,91.7a13.012,13.012,0,0,1-6.982-1.807A16.5,16.5,0,0,0,32.87,87.7a16.493,16.493,0,0,0-8.58,2.194A13.016,13.016,0,0,1,17.31,91.7a13.016,13.016,0,0,1-6.98-1.806A16.487,16.487,0,0,0,3.5,87.771v-6.5a13.077,13.077,0,0,1,5.23,1.725,16.507,16.507,0,0,0,8.58,2.193,16.5,16.5,0,0,0,8.58-2.194,13.011,13.011,0,0,1,6.98-1.806,13.012,13.012,0,0,1,6.982,1.807,16.511,16.511,0,0,0,8.581,2.193,16.494,16.494,0,0,0,8.578-2.194,13.01,13.01,0,0,1,6.979-1.806,13.022,13.022,0,0,1,6.982,1.806,17.882,17.882,0,0,0,17.164,0,14.4,14.4,0,0,1,13.965,0,17.893,17.893,0,0,0,17.166,0,13.087,13.087,0,0,1,5.233-1.725Z"/>
    </g>
  </g>
</svg>
