<svg version="1.1" id="Layer_1" xmlns="http://www.w3.org/2000/svg" xmlns:xlink="http://www.w3.org/1999/xlink" x="0px" y="0px"
	 width="100%" viewBox="0 0 500 500" enable-background="new 0 0 500 500" xml:space="preserve">
<path fill="#000000" opacity="1.000000" stroke="none" 
	d="
M444.000000,501.000000 
	C296.000031,501.000000 148.500076,501.000000 1.000053,501.000000 
	C1.000000,417.666718 1.000000,334.333435 1.000000,251.000168 
	C1.000000,167.666855 1.000000,84.333542 1.000000,1.000169 
	C167.666550,1.000112 334.333099,1.000112 500.999756,1.000056 
	C500.999817,167.666519 500.999817,334.333038 500.999908,500.999756 
	C482.166656,501.000000 463.333344,501.000000 444.000000,501.000000 
M217.110870,262.793823 
	C220.015869,268.831512 225.105316,270.995789 230.020782,267.856873 
	C231.636841,266.824921 235.235184,265.748016 233.335861,262.949280 
	C229.978348,263.920868 227.249878,264.710449 224.138260,265.610870 
	C224.138260,263.098053 224.138260,261.663147 224.138260,260.527527 
	C225.928360,259.901886 227.435730,259.375092 229.693771,258.993622 
	C234.603485,256.877594 236.473984,253.482346 234.873306,249.591965 
	C233.645554,246.607941 227.907593,245.199600 224.071030,246.940628 
	C218.020584,249.686264 216.520447,252.983643 217.110870,262.793823 
M432.006470,261.190796 
	C431.686096,260.163300 431.365723,259.135803 431.698334,257.830292 
	C432.571014,255.463776 434.333252,253.011093 434.114319,250.750305 
	C433.758911,247.080612 430.420807,247.132919 427.270660,246.904907 
	C419.045959,246.309601 414.492340,254.878113 416.366516,262.795746 
	C417.897217,269.262268 427.015442,271.667542 431.525116,266.783936 
	C432.418396,265.816589 431.893707,263.539795 432.006470,261.190796 
M373.994385,258.006866 
	C373.996246,259.505188 373.918915,261.008575 374.013855,262.500977 
	C374.396759,268.520264 379.380188,271.067108 384.487183,267.817047 
	C385.817108,266.970673 386.954742,265.822113 387.503479,265.370148 
	C389.592438,267.292511 391.304840,268.868317 393.837708,271.199158 
	C393.837708,268.511780 393.837708,267.215149 394.251801,265.234222 
	C394.835999,264.442108 395.722748,263.727692 395.949738,262.843842 
	C396.750549,259.725525 397.325226,256.549103 398.154663,252.587631 
	C398.935486,254.216370 399.253265,254.879181 399.571014,255.542007 
	C398.925262,252.584946 402.422333,247.804657 395.732849,247.090790 
	C395.732849,250.061310 395.732849,252.824112 395.732849,255.586899 
	C395.537781,255.565308 395.342743,255.543716 395.147675,255.522110 
	C395.045074,255.033035 394.942444,254.543961 394.981537,253.198502 
	C395.031128,247.182098 395.031830,247.189468 388.526215,247.816437 
	C388.087128,247.858734 387.606781,247.720901 387.177032,247.574554 
	C382.240601,245.893250 378.952576,248.320084 376.013489,251.247116 
	C375.042938,250.153320 374.072357,249.059509 372.785492,247.315842 
	C371.694702,246.872498 370.603943,246.429169 369.570435,246.009109 
	C369.033264,247.506104 368.589813,248.741898 368.014160,249.318176 
	C366.420959,248.547821 364.936310,246.269241 362.783295,248.269867 
	C360.253296,244.918320 358.014740,245.098923 355.302307,248.779938 
	C354.023712,244.509979 353.129639,248.750519 351.784210,248.269333 
	C349.239685,244.962494 346.649414,245.561401 343.500580,247.976395 
	C343.271332,247.681732 343.042114,247.387070 342.935211,246.169724 
	C342.941223,243.677322 343.308533,241.115753 342.848633,238.712524 
	C342.414215,236.442886 341.110016,234.339722 340.188416,232.163345 
	C339.482819,232.360947 338.777252,232.558533 338.071655,232.756134 
	C338.071655,234.818802 338.308350,236.914200 338.028351,238.938110 
	C337.094391,245.689392 336.188324,252.460709 334.762115,259.115173 
	C334.445526,260.592468 332.044312,261.623016 330.602936,262.859283 
	C330.049805,260.903259 328.884125,258.871521 329.114044,257.012329 
	C329.348907,255.113693 330.801422,253.274109 332.004089,251.613846 
	C333.091278,250.113007 334.560791,248.889160 336.035217,247.363663 
	C328.527100,245.791962 324.724609,249.552292 321.329865,254.379120 
	C321.011749,251.991241 320.693634,249.603348 320.375549,247.215485 
	C317.614166,247.923248 314.852753,248.631012 311.812103,249.410355 
	C310.884338,248.609741 309.145233,247.108994 307.626099,245.798080 
	C306.767731,251.998840 305.823883,257.701385 305.286194,263.441986 
	C305.141785,264.983734 305.910522,266.891022 306.882660,268.149628 
	C307.442932,268.874969 309.908173,269.221008 310.358765,268.712494 
	C311.306854,267.642456 311.702911,265.930817 311.946930,264.421326 
	C312.449280,261.313293 312.703125,258.165070 312.914429,256.306732 
	C316.703644,255.772339 319.388489,255.393692 322.006348,255.923874 
	C322.002075,258.080811 321.973328,260.238037 321.998291,262.394623 
	C322.062469,267.941833 326.182129,270.536163 331.290466,268.208893 
	C332.591583,267.616119 333.792664,266.803741 335.122131,266.045227 
	C336.479828,267.070770 337.856934,268.110962 339.744751,269.536926 
	C340.917877,263.901245 341.966492,258.863770 343.648254,253.856735 
	C344.429657,253.284317 345.211060,252.711899 346.773651,252.364624 
	C347.488586,256.851654 348.075104,261.365540 349.005005,265.807556 
	C349.250153,266.978699 350.585999,268.805237 351.368225,268.778656 
	C352.625183,268.735901 353.890198,267.470001 355.056000,266.593475 
	C356.366577,265.608093 357.570831,264.481293 359.493225,262.843658 
	C359.906708,265.805420 360.127380,267.386047 360.313354,268.718140 
	C365.944000,270.571289 366.217072,265.766541 368.816772,263.002930 
	C370.533325,261.050110 372.249878,259.097290 373.994385,258.006866 
M259.033081,258.220947 
	C259.828583,257.501221 260.562378,256.263977 261.431305,256.160400 
	C263.882690,255.868225 266.389526,256.041534 269.034302,256.856934 
	C268.927521,258.152191 268.983734,259.486450 268.685120,260.735840 
	C267.535889,265.543671 268.990509,267.959473 273.963654,269.147614 
	C274.255981,264.775726 274.547485,260.416534 275.055420,255.245972 
	C275.715057,251.417175 276.683197,247.610397 276.958221,243.754181 
	C277.323181,238.637039 275.919312,237.682693 269.873047,238.513596 
	C269.873047,242.494125 269.873047,246.562897 269.873047,250.942184 
	C267.898834,250.942184 266.432587,250.942200 264.966370,250.942200 
	C263.394440,250.942200 261.822540,250.942184 260.076477,250.942184 
	C262.862152,241.037628 260.923462,237.298691 254.683075,238.464722 
	C254.199295,242.984039 254.886505,248.022934 252.902924,251.567001 
	C251.234711,254.547623 251.194733,255.890350 253.013443,258.810364 
	C251.364838,265.439972 252.502014,267.755859 258.836395,269.426697 
	C258.836395,265.859650 258.836395,262.459412 259.033081,258.220947 
M85.006149,262.215057 
	C82.973473,258.302124 81.930435,254.607864 86.190704,251.250488 
	C89.258835,248.832611 90.584503,245.137894 87.803658,242.262512 
	C85.705887,240.093445 82.091133,239.068207 78.963501,238.317978 
	C76.334991,237.687485 73.435104,238.188370 70.611542,238.188370 
	C70.134811,242.344681 69.641701,247.214401 68.999664,252.064438 
	C68.466331,256.093323 67.684746,260.089325 67.150711,264.118134 
	C66.748009,267.156189 68.187523,269.480347 71.142265,269.847626 
	C74.510612,270.266296 73.904373,267.365692 73.934227,265.303680 
	C73.981026,262.071167 73.946640,258.837524 73.946640,255.604355 
	C74.328270,255.440552 74.709908,255.276749 75.091537,255.112961 
	C76.067383,256.401855 77.234871,257.590393 77.974480,259.002991 
	C79.103363,261.159119 79.779617,263.554382 80.930801,265.696167 
	C82.814919,269.201599 85.352760,271.553101 90.063354,269.457642 
	C88.389519,267.101715 86.888893,264.989594 85.006149,262.215057 
M213.681763,235.156235 
	C212.405701,234.050323 211.129623,232.944412 208.973694,231.075989 
	C208.973694,237.043320 208.973694,241.771011 208.973694,246.792542 
	C207.252655,246.876572 205.966507,246.974213 204.679077,246.996399 
	C198.149124,247.108978 195.793533,248.850449 193.839798,255.371979 
	C192.489502,259.879181 191.428375,264.849182 195.754333,268.057251 
	C200.017395,271.218719 203.695679,268.040344 207.377502,264.423035 
	C208.511749,266.403992 209.506302,268.140930 210.500839,269.877869 
	C212.544495,260.008667 213.883942,251.336090 214.891083,242.625122 
	C215.142883,240.447281 214.324799,238.145721 213.681763,235.156235 
M293.884888,248.127396 
	C293.443878,247.773392 293.028198,247.150131 292.558075,247.105957 
	C286.001709,246.490051 280.444946,251.486771 280.230286,259.114807 
	C280.142731,262.225708 281.146912,266.554626 283.295807,268.254822 
	C286.299622,270.631378 290.141907,268.726868 292.814789,265.724487 
	C293.186951,265.306427 293.893738,265.186279 293.529327,265.356689 
	C295.687408,267.316772 297.387421,268.860809 299.468231,270.750702 
	C300.028839,263.761383 300.418152,257.855103 301.002350,251.968140 
	C301.443878,247.518814 299.494049,246.307770 295.210205,247.449554 
	C295.038879,254.272354 294.800201,261.185638 287.429993,266.004944 
	C286.265442,258.244537 287.501190,252.614746 293.884888,248.127396 
M163.926483,252.961502 
	C165.387985,255.467789 166.849487,257.974091 168.449142,260.717285 
	C167.568878,260.787842 166.261932,260.671417 165.116943,261.047760 
	C164.011993,261.410950 162.342697,262.169342 162.221146,262.955170 
	C161.995895,264.411407 162.191315,266.688721 163.142838,267.432190 
	C166.263611,269.870605 170.174744,270.087158 173.675674,268.564606 
	C175.469711,267.784363 177.506302,265.660797 177.848587,263.845520 
	C178.527664,260.244110 176.098633,257.801178 172.903091,256.235901 
	C172.687393,256.130280 172.651581,255.657410 172.854004,256.169189 
	C174.743774,254.890060 176.837662,254.010498 178.036819,252.445404 
	C178.684082,251.600616 178.216751,248.550125 177.535751,248.276199 
	C174.762405,247.160706 171.481125,245.749222 168.838287,246.369507 
	C166.784531,246.851517 165.399750,250.183792 163.926483,252.961502 
M137.161102,258.898560 
	C140.674026,257.835205 142.683517,255.194061 141.735687,251.878601 
	C141.103638,249.667831 138.853699,247.185699 136.717590,246.304749 
	C133.200500,244.854279 126.041946,248.095505 125.264755,251.945602 
	C124.355507,256.449799 123.817619,262.210541 125.881729,265.865875 
	C129.266693,271.860321 136.677155,270.345093 141.293884,262.952087 
	C139.433899,263.218353 138.003220,263.106689 136.876266,263.638550 
	C131.655701,266.102509 130.341690,265.329163 130.390839,259.945953 
	C132.446655,259.615295 134.411926,259.299164 137.161102,258.898560 
M107.106956,264.157043 
	C107.567245,265.697510 108.027527,267.238007 108.712807,269.531464 
	C110.467728,268.837219 112.962044,268.651001 113.695122,267.417816 
	C116.434853,262.808990 118.555267,257.835754 120.991768,253.041748 
	C122.649765,249.779495 122.139160,247.426071 118.775856,246.086288 
	C116.755562,250.701340 114.810036,255.145615 112.373672,260.711090 
	C110.114471,246.293900 109.690002,244.340332 104.065552,246.770767 
	C105.036774,252.212738 106.025352,257.751984 107.106956,264.157043 
M402.725525,246.222214 
	C402.253998,246.264664 401.381622,246.254639 401.368195,246.357071 
	C400.549622,252.610489 399.554352,258.861603 399.261078,265.144928 
	C399.204315,266.360504 401.916321,267.705322 403.351105,268.990540 
	C404.234314,267.703949 405.608093,266.519684 405.902161,265.110168 
	C406.587067,261.827423 406.752106,258.436218 407.181824,254.607574 
	C410.699707,256.657837 414.001190,257.073395 415.565857,253.501160 
	C416.279205,251.872513 414.888519,249.322296 414.452148,247.190048 
	C411.683167,247.848724 408.914215,248.507385 406.949646,248.974701 
	C406.132812,248.494446 404.697113,247.650330 402.725525,246.222214 
M154.902069,252.631073 
	C155.396103,253.151962 155.911224,253.654709 156.378876,254.198288 
	C156.986435,254.904449 157.556229,255.643097 158.142258,256.367767 
	C159.436783,254.863922 161.538055,253.487473 161.801193,251.820786 
	C162.069626,250.120712 160.976196,247.581375 159.613586,246.487961 
	C158.827408,245.857101 156.233124,247.169449 154.638229,247.974701 
	C153.706528,248.445099 153.140442,249.639648 152.705475,250.156891 
	C151.140915,248.792679 149.452103,247.320129 147.357132,245.493423 
	C146.849457,252.567581 146.521561,258.642029 145.931381,264.690857 
	C145.658432,267.488586 147.057175,269.054596 149.355484,268.743286 
	C150.410034,268.600464 151.505814,266.133820 151.937271,264.545593 
	C152.951904,260.810669 153.578156,256.970245 154.902069,252.631073 
M93.045105,262.252869 
	C94.145767,264.630280 95.246422,267.007690 96.347084,269.385101 
	C96.947395,269.195892 97.547714,269.006653 98.148026,268.817413 
	C98.421089,267.620789 98.826553,266.436951 98.943451,265.225250 
	C99.369156,260.812469 99.560387,256.373474 100.100121,251.976257 
	C100.729721,246.846985 99.668388,245.716934 95.323151,246.445923 
	C94.541550,251.593109 93.796303,256.500885 93.045105,262.252869 
M182.967407,263.082458 
	C183.853592,265.090485 184.739792,267.098511 185.625977,269.106537 
	C186.221771,268.915527 186.817566,268.724518 187.413361,268.533539 
	C188.270081,262.436615 189.429092,256.361267 189.866165,250.234406 
	C190.114456,246.754196 187.646301,245.504105 184.078598,246.235764 
	C183.699509,251.690979 183.334518,256.943146 182.967407,263.082458 
M99.333786,243.899170 
	C100.077370,242.417786 101.251183,240.967728 101.362335,239.440338 
	C101.409790,238.788162 99.127060,237.264038 98.107849,237.425797 
	C96.993622,237.602631 95.116379,239.654633 95.331078,240.213882 
	C95.878693,241.640228 97.405922,242.690475 99.333786,243.899170 
M185.684662,237.029846 
	C183.268585,239.141739 183.015366,241.375381 186.047440,242.860535 
	C187.264328,243.456589 190.029846,243.312531 190.520996,242.525665 
	C192.150848,239.914551 190.151489,238.398453 187.881683,237.366409 
	C187.445419,237.168045 186.952515,237.094315 185.684662,237.029846 
z"/>
<path fill="#2E8BBD" opacity="1.000000" stroke="none" 
	d="
M85.197205,262.546265 
	C86.888893,264.989594 88.389519,267.101715 90.063354,269.457642 
	C85.352760,271.553101 82.814919,269.201599 80.930801,265.696167 
	C79.779617,263.554382 79.103363,261.159119 77.974480,259.002991 
	C77.234871,257.590393 76.067383,256.401855 75.091537,255.112961 
	C74.709908,255.276749 74.328270,255.440552 73.946640,255.604355 
	C73.946640,258.837524 73.981026,262.071167 73.934227,265.303680 
	C73.904373,267.365692 74.510612,270.266296 71.142265,269.847626 
	C68.187523,269.480347 66.748009,267.156189 67.150711,264.118134 
	C67.684746,260.089325 68.466331,256.093323 68.999664,252.064438 
	C69.641701,247.214401 70.134811,242.344681 70.611542,238.188370 
	C73.435104,238.188370 76.334991,237.687485 78.963501,238.317978 
	C82.091133,239.068207 85.705887,240.093445 87.803658,242.262512 
	C90.584503,245.137894 89.258835,248.832611 86.190704,251.250488 
	C81.930435,254.607864 82.973473,258.302124 85.197205,262.546265 
M80.705345,251.166901 
	C83.365639,249.032883 84.279633,246.380753 82.031273,243.620697 
	C81.193848,242.592667 78.689842,241.601257 77.868706,242.103149 
	C73.681335,244.662506 74.859406,248.830811 75.251099,253.377075 
	C77.079941,252.692001 78.548218,252.141983 80.705345,251.166901 
z"/>
<path fill="#54AAFB" opacity="1.000000" stroke="none" 
	d="
M321.990204,255.100937 
	C324.724609,249.552292 328.527100,245.791962 336.035217,247.363663 
	C334.560791,248.889160 333.091278,250.113007 332.004089,251.613846 
	C330.801422,253.274109 329.348907,255.113693 329.114044,257.012329 
	C328.884125,258.871521 330.049805,260.903259 330.602936,262.859283 
	C332.044312,261.623016 334.445526,260.592468 334.762115,259.115173 
	C336.188324,252.460709 337.094391,245.689392 338.028351,238.938110 
	C338.308350,236.914200 338.071655,234.818802 338.071655,232.756134 
	C338.777252,232.558533 339.482819,232.360947 340.188416,232.163345 
	C341.110016,234.339722 342.414215,236.442886 342.848633,238.712524 
	C343.308533,241.115753 342.941223,243.677322 342.632324,246.864868 
	C342.558014,249.648773 342.786560,251.737534 343.015137,253.826294 
	C341.966492,258.863770 340.917877,263.901245 339.744751,269.536926 
	C337.856934,268.110962 336.479828,267.070770 335.122131,266.045227 
	C333.792664,266.803741 332.591583,267.616119 331.290466,268.208893 
	C326.182129,270.536163 322.062469,267.941833 321.998291,262.394623 
	C321.973328,260.238037 322.002075,258.080811 322.009552,255.481720 
	C322.012756,255.039551 321.990204,255.100937 321.990204,255.100937 
z"/>
<path fill="#2E8BBD" opacity="1.000000" stroke="none" 
	d="
M213.840088,235.528625 
	C214.324799,238.145721 215.142883,240.447281 214.891083,242.625122 
	C213.883942,251.336090 212.544495,260.008667 210.500839,269.877869 
	C209.506302,268.140930 208.511749,266.403992 207.377502,264.423035 
	C203.695679,268.040344 200.017395,271.218719 195.754333,268.057251 
	C191.428375,264.849182 192.489502,259.879181 193.839798,255.371979 
	C195.793533,248.850449 198.149124,247.108978 204.679077,246.996399 
	C205.966507,246.974213 207.252655,246.876572 208.973694,246.792542 
	C208.973694,241.771011 208.973694,237.043320 208.973694,231.075989 
	C211.129623,232.944412 212.405701,234.050323 213.840088,235.528625 
M203.999329,250.567459 
	C199.893997,254.525543 199.436035,259.414337 200.479538,265.566376 
	C207.486343,261.383026 206.975845,254.424927 208.669098,247.682739 
	C206.911514,248.682739 205.714569,249.363754 203.999329,250.567459 
z"/>
<path fill="#54AAFB" opacity="1.000000" stroke="none" 
	d="
M344.035522,248.178619 
	C346.649414,245.561401 349.239685,244.962494 351.889496,249.020233 
	C352.406982,253.589310 352.819183,257.407471 353.231384,261.225616 
	C353.817993,261.243530 354.404602,261.261414 354.991211,261.279297 
	C355.330414,257.125000 355.669586,252.970718 356.008789,248.816422 
	C358.014740,245.098923 360.253296,244.918320 362.908203,249.048737 
	C363.423767,253.558655 363.814423,257.289734 364.205109,261.020782 
	C364.640137,261.060547 365.075195,261.100281 365.510223,261.140045 
	C366.388947,257.419250 367.267670,253.698471 368.146362,249.977692 
	C368.589813,248.741898 369.033264,247.506104 369.570435,246.009109 
	C370.603943,246.429169 371.694702,246.872498 372.888245,248.029907 
	C371.366547,253.507660 369.742065,258.271362 368.117584,263.035034 
	C366.217072,265.766541 365.944000,270.571289 360.313354,268.718140 
	C360.127380,267.386047 359.906708,265.805420 359.493225,262.843658 
	C357.570831,264.481293 356.366577,265.608093 355.056000,266.593475 
	C353.890198,267.470001 352.625183,268.735901 351.368225,268.778656 
	C350.585999,268.805237 349.250153,266.978699 349.005005,265.807556 
	C348.075104,261.365540 347.488586,256.851654 346.104523,252.075073 
	C344.968781,250.583221 344.502167,249.380920 344.035522,248.178619 
z"/>
<path fill="#54AAFB" opacity="1.000000" stroke="none" 
	d="
M293.735229,248.488403 
	C287.501190,252.614746 286.265442,258.244537 287.429993,266.004944 
	C294.800201,261.185638 295.038879,254.272354 295.210205,247.449554 
	C299.494049,246.307770 301.443878,247.518814 301.002350,251.968140 
	C300.418152,257.855103 300.028839,263.761383 299.468231,270.750702 
	C297.387421,268.860809 295.687408,267.316772 293.529327,265.356689 
	C293.893738,265.186279 293.186951,265.306427 292.814789,265.724487 
	C290.141907,268.726868 286.299622,270.631378 283.295807,268.254822 
	C281.146912,266.554626 280.142731,262.225708 280.230286,259.114807 
	C280.444946,251.486771 286.001709,246.490051 292.558075,247.105957 
	C293.028198,247.150131 293.443878,247.773392 293.735229,248.488403 
z"/>
<path fill="#2E8BBD" opacity="1.000000" stroke="none" 
	d="
M253.124847,258.015991 
	C251.194733,255.890350 251.234711,254.547623 252.902924,251.567001 
	C254.886505,248.022934 254.199295,242.984039 254.683075,238.464722 
	C260.923462,237.298691 262.862152,241.037628 260.076477,250.942184 
	C261.822540,250.942184 263.394440,250.942200 264.966370,250.942200 
	C266.432587,250.942200 267.898834,250.942184 269.873047,250.942184 
	C269.873047,246.562897 269.873047,242.494125 269.873047,238.513596 
	C275.919312,237.682693 277.323181,238.637039 276.958221,243.754181 
	C276.683197,247.610397 275.715057,251.417175 274.522400,255.632294 
	C272.284393,256.022858 270.579468,256.027130 268.874512,256.031403 
	C266.389526,256.041534 263.882690,255.868225 261.431305,256.160400 
	C260.562378,256.263977 259.828583,257.501221 258.562378,258.622742 
	C256.436096,258.688354 254.780472,258.352173 253.124847,258.015991 
z"/>
<path fill="#54AAFB" opacity="1.000000" stroke="none" 
	d="
M376.148499,251.971573 
	C378.952576,248.320084 382.240601,245.893250 387.177032,247.574554 
	C387.606781,247.720901 388.087128,247.858734 388.526215,247.816437 
	C395.031830,247.189468 395.031128,247.182098 394.624451,253.899170 
	C394.124115,258.372742 393.980927,262.145630 393.837708,265.918549 
	C393.837708,267.215149 393.837708,268.511780 393.837708,271.199158 
	C391.304840,268.868317 389.592438,267.292511 387.503479,265.370148 
	C386.954742,265.822113 385.817108,266.970673 384.487183,267.817047 
	C379.380188,271.067108 374.396759,268.520264 374.013855,262.500977 
	C373.918915,261.008575 373.996246,259.505188 374.307861,257.403687 
	C375.130402,255.190842 375.639435,253.581207 376.148499,251.971573 
M386.496521,261.939392 
	C386.640015,261.601624 386.783539,261.263855 386.987457,260.201447 
	C387.315460,258.850647 387.643494,257.499817 388.633759,255.663116 
	C388.633759,253.496872 388.633759,251.330612 388.633759,248.447800 
	C380.663940,251.608322 380.569092,257.690704 380.754883,264.068329 
	C383.396149,265.644165 385.242126,265.209229 386.003510,261.966858 
	C386.003510,261.966858 385.920166,261.984558 386.496521,261.939392 
z"/>
<path fill="#2E8BBD" opacity="1.000000" stroke="none" 
	d="
M163.822052,252.605362 
	C165.399750,250.183792 166.784531,246.851517 168.838287,246.369507 
	C171.481125,245.749222 174.762405,247.160706 177.535751,248.276199 
	C178.216751,248.550125 178.684082,251.600616 178.036819,252.445404 
	C176.837662,254.010498 174.743774,254.890060 172.854004,256.169189 
	C172.651581,255.657410 172.687393,256.130280 172.903091,256.235901 
	C176.098633,257.801178 178.527664,260.244110 177.848587,263.845520 
	C177.506302,265.660797 175.469711,267.784363 173.675674,268.564606 
	C170.174744,270.087158 166.263611,269.870605 163.142838,267.432190 
	C162.191315,266.688721 161.995895,264.411407 162.221146,262.955170 
	C162.342697,262.169342 164.011993,261.410950 165.116943,261.047760 
	C166.261932,260.671417 167.568878,260.787842 168.449142,260.717285 
	C166.849487,257.974091 165.387985,255.467789 163.822052,252.605362 
z"/>
<path fill="#2E8BBD" opacity="1.000000" stroke="none" 
	d="
M136.769150,258.940796 
	C134.411926,259.299164 132.446655,259.615295 130.390839,259.945953 
	C130.341690,265.329163 131.655701,266.102509 136.876266,263.638550 
	C138.003220,263.106689 139.433899,263.218353 141.293884,262.952087 
	C136.677155,270.345093 129.266693,271.860321 125.881729,265.865875 
	C123.817619,262.210541 124.355507,256.449799 125.264755,251.945602 
	C126.041946,248.095505 133.200500,244.854279 136.717590,246.304749 
	C138.853699,247.185699 141.103638,249.667831 141.735687,251.878601 
	C142.683517,255.194061 140.674026,257.835205 136.769150,258.940796 
M132.525574,255.998718 
	C136.001251,254.666000 137.030426,252.552338 134.837082,249.198898 
	C130.434128,252.709610 130.110931,253.460571 132.525574,255.998718 
z"/>
<path fill="#54AAFB" opacity="1.000000" stroke="none" 
	d="
M432.022919,261.866882 
	C431.893707,263.539795 432.418396,265.816589 431.525116,266.783936 
	C427.015442,271.667542 417.897217,269.262268 416.366516,262.795746 
	C414.492340,254.878113 419.045959,246.309601 427.270660,246.904907 
	C430.420807,247.132919 433.758911,247.080612 434.114319,250.750305 
	C434.333252,253.011093 432.571014,255.463776 430.974274,257.966919 
	C427.701019,258.526703 425.151825,258.949860 422.010498,259.471313 
	C422.977570,261.376282 423.608032,264.333679 424.813965,264.590668 
	C426.611938,264.973785 428.824677,263.475830 430.840027,262.722382 
	C431.279510,262.558105 431.630951,262.158264 432.022919,261.866882 
M422.564362,255.520370 
	C425.265411,258.569855 426.885101,256.235413 427.911896,254.094650 
	C428.557068,252.749466 428.107758,250.879364 428.149475,249.244766 
	C426.575226,250.311661 424.910767,251.273026 423.473969,252.500793 
	C422.947723,252.950485 422.961273,254.031830 422.564362,255.520370 
z"/>
<path fill="#2E8BBD" opacity="1.000000" stroke="none" 
	d="
M107.060440,263.724121 
	C106.025352,257.751984 105.036774,252.212738 104.065552,246.770767 
	C109.690002,244.340332 110.114471,246.293900 112.373672,260.711090 
	C114.810036,255.145615 116.755562,250.701340 118.775856,246.086288 
	C122.139160,247.426071 122.649765,249.779495 120.991768,253.041748 
	C118.555267,257.835754 116.434853,262.808990 113.695122,267.417816 
	C112.962044,268.651001 110.467728,268.837219 108.712807,269.531464 
	C108.027527,267.238007 107.567245,265.697510 107.060440,263.724121 
z"/>
<path fill="#54AAFB" opacity="1.000000" stroke="none" 
	d="
M322.043060,255.027298 
	C319.388489,255.393692 316.703644,255.772339 312.914429,256.306732 
	C312.703125,258.165070 312.449280,261.313293 311.946930,264.421326 
	C311.702911,265.930817 311.306854,267.642456 310.358765,268.712494 
	C309.908173,269.221008 307.442932,268.874969 306.882660,268.149628 
	C305.910522,266.891022 305.141785,264.983734 305.286194,263.441986 
	C305.823883,257.701385 306.767731,251.998840 307.626099,245.798080 
	C309.145233,247.108994 310.884338,248.609741 311.812103,249.410355 
	C314.852753,248.631012 317.614166,247.923248 320.375549,247.215485 
	C320.693634,249.603348 321.011749,251.991241 321.660034,254.740021 
	C321.990204,255.100937 322.012756,255.039551 322.043060,255.027298 
z"/>
<path fill="#54AAFB" opacity="1.000000" stroke="none" 
	d="
M402.993469,246.514221 
	C404.697113,247.650330 406.132812,248.494446 406.949646,248.974701 
	C408.914215,248.507385 411.683167,247.848724 414.452148,247.190063 
	C414.888519,249.322296 416.279205,251.872513 415.565857,253.501160 
	C414.001190,257.073395 410.699707,256.657837 407.181824,254.607574 
	C406.752106,258.436218 406.587067,261.827423 405.902161,265.110168 
	C405.608093,266.519684 404.234314,267.703949 403.351105,268.990540 
	C401.916321,267.705322 399.204315,266.360504 399.261078,265.144928 
	C399.554352,258.861603 400.549622,252.610489 401.368195,246.357071 
	C401.381622,246.254639 402.253998,246.264664 402.993469,246.514221 
z"/>
<path fill="#2E8BBD" opacity="1.000000" stroke="none" 
	d="
M217.187134,262.071808 
	C216.520447,252.983643 218.020584,249.686264 224.071030,246.940628 
	C227.907593,245.199600 233.645554,246.607941 234.873306,249.591965 
	C236.473984,253.482346 234.603485,256.877594 229.045135,258.667480 
	C225.720459,257.796356 223.325150,257.495331 221.514069,260.494385 
	C220.895966,261.517944 218.675491,261.573822 217.187134,262.071808 
M227.900253,252.407867 
	C227.566589,252.129715 227.232910,251.851562 226.899231,251.573425 
	C226.726578,252.254486 226.553925,252.935562 226.381302,253.616638 
	C226.773590,253.402710 227.165878,253.188766 227.900253,252.407867 
z"/>
<path fill="#2E8BBD" opacity="1.000000" stroke="none" 
	d="
M154.631805,252.901794 
	C153.578156,256.970245 152.951904,260.810669 151.937271,264.545593 
	C151.505814,266.133820 150.410034,268.600464 149.355484,268.743286 
	C147.057175,269.054596 145.658432,267.488586 145.931381,264.690857 
	C146.521561,258.642029 146.849457,252.567581 147.357132,245.493423 
	C149.452103,247.320129 151.140915,248.792679 152.705475,250.156891 
	C153.140442,249.639648 153.706528,248.445099 154.638229,247.974701 
	C156.233124,247.169449 158.827408,245.857101 159.613586,246.487961 
	C160.976196,247.581375 162.069626,250.120712 161.801193,251.820786 
	C161.538055,253.487473 159.436783,254.863922 158.142258,256.367767 
	C157.556229,255.643097 156.986435,254.904449 156.378876,254.198288 
	C155.911224,253.654709 155.396103,253.151962 154.631805,252.901794 
z"/>
<path fill="#2E8BBD" opacity="1.000000" stroke="none" 
	d="
M93.048080,261.830780 
	C93.796303,256.500885 94.541550,251.593109 95.323151,246.445923 
	C99.668388,245.716934 100.729721,246.846985 100.100121,251.976257 
	C99.560387,256.373474 99.369156,260.812469 98.943451,265.225250 
	C98.826553,266.436951 98.421089,267.620789 98.148026,268.817413 
	C97.547714,269.006653 96.947395,269.195892 96.347084,269.385101 
	C95.246422,267.007690 94.145767,264.630280 93.048080,261.830780 
z"/>
<path fill="#2E8BBD" opacity="1.000000" stroke="none" 
	d="
M182.968475,262.638885 
	C183.334518,256.943146 183.699509,251.690979 184.078598,246.235764 
	C187.646301,245.504105 190.114456,246.754196 189.866165,250.234406 
	C189.429092,256.361267 188.270081,262.436615 187.413361,268.533539 
	C186.817566,268.724518 186.221771,268.915527 185.625977,269.106537 
	C184.739792,267.098511 183.853592,265.090485 182.968475,262.638885 
z"/>
<path fill="#54AAFB" opacity="1.000000" stroke="none" 
	d="
M217.149002,262.432800 
	C218.675491,261.573822 220.895966,261.517944 221.514069,260.494385 
	C223.325150,257.495331 225.720459,257.796356 228.669785,258.594788 
	C227.435730,259.375092 225.928360,259.901886 224.138260,260.527527 
	C224.138260,261.663147 224.138260,263.098053 224.138260,265.610870 
	C227.249878,264.710449 229.978348,263.920868 233.335861,262.949280 
	C235.235184,265.748016 231.636841,266.824921 230.020782,267.856873 
	C225.105316,270.995789 220.015869,268.831512 217.149002,262.432800 
z"/>
<path fill="#54AAFB" opacity="1.000000" stroke="none" 
	d="
M268.954407,256.444153 
	C270.579468,256.027130 272.284393,256.022858 274.414185,256.037994 
	C274.547485,260.416534 274.255981,264.775726 273.963654,269.147614 
	C268.990509,267.959473 267.535889,265.543671 268.685120,260.735840 
	C268.983734,259.486450 268.927521,258.152191 268.954407,256.444153 
z"/>
<path fill="#54AAFB" opacity="1.000000" stroke="none" 
	d="
M253.069153,258.413177 
	C254.780472,258.352173 256.436096,258.688354 258.464050,259.041870 
	C258.836395,262.459412 258.836395,265.859650 258.836395,269.426697 
	C252.502014,267.755859 251.364838,265.439972 253.069153,258.413177 
z"/>
<path fill="#DCECF7" opacity="1.000000" stroke="none" 
	d="
M394.044769,265.576385 
	C393.980927,262.145630 394.124115,258.372742 394.553589,254.327362 
	C394.942444,254.543961 395.045074,255.033035 395.147675,255.522110 
	C395.342743,255.543716 395.537781,255.565308 395.732849,255.586899 
	C395.732849,252.824112 395.732849,250.061310 395.732849,247.090790 
	C402.422333,247.804657 398.925262,252.584946 399.571014,255.542007 
	C399.253265,254.879181 398.935486,254.216370 398.154663,252.587631 
	C397.325226,256.549103 396.750549,259.725525 395.949738,262.843842 
	C395.722748,263.727692 394.835999,264.442108 394.044769,265.576385 
z"/>
<path fill="#DCECF7" opacity="1.000000" stroke="none" 
	d="
M376.080994,251.609344 
	C375.639435,253.581207 375.130402,255.190842 374.293884,256.972473 
	C372.249878,259.097290 370.533325,261.050110 368.467163,263.018982 
	C369.742065,258.271362 371.366547,253.507660 373.046387,248.354843 
	C374.072357,249.059509 375.042938,250.153320 376.080994,251.609344 
z"/>
<path fill="#DCECF7" opacity="1.000000" stroke="none" 
	d="
M432.014709,261.528839 
	C431.630951,262.158264 431.279510,262.558105 430.840027,262.722382 
	C428.824677,263.475830 426.611938,264.973785 424.813965,264.590668 
	C423.608032,264.333679 422.977570,261.376282 422.010498,259.471313 
	C425.151825,258.949860 427.701019,258.526703 430.647766,258.105927 
	C431.365723,259.135803 431.686096,260.163300 432.014709,261.528839 
z"/>
<path fill="#DCECF7" opacity="1.000000" stroke="none" 
	d="
M368.080261,249.647934 
	C367.267670,253.698471 366.388947,257.419250 365.510223,261.140045 
	C365.075195,261.100281 364.640137,261.060547 364.205109,261.020782 
	C363.814423,257.289734 363.423767,253.558655 363.063385,249.395782 
	C364.936310,246.269241 366.420959,248.547821 368.080261,249.647934 
z"/>
<path fill="#DCECF7" opacity="1.000000" stroke="none" 
	d="
M355.655548,248.798187 
	C355.669586,252.970718 355.330414,257.125000 354.991211,261.279297 
	C354.404602,261.261414 353.817993,261.243530 353.231384,261.225616 
	C352.819183,257.407471 352.406982,253.589310 352.023376,249.348969 
	C353.129639,248.750519 354.023712,244.509979 355.655548,248.798187 
z"/>
<path fill="#2E8BBD" opacity="1.000000" stroke="none" 
	d="
M98.937485,243.895187 
	C97.405922,242.690475 95.878693,241.640228 95.331078,240.213882 
	C95.116379,239.654633 96.993622,237.602631 98.107849,237.425797 
	C99.127060,237.264038 101.409790,238.788162 101.362335,239.440338 
	C101.251183,240.967728 100.077370,242.417786 98.937485,243.895187 
z"/>
<path fill="#2E8BBD" opacity="1.000000" stroke="none" 
	d="
M186.085205,236.996460 
	C186.952515,237.094315 187.445419,237.168045 187.881683,237.366409 
	C190.151489,238.398453 192.150848,239.914551 190.520996,242.525665 
	C190.029846,243.312531 187.264328,243.456589 186.047440,242.860535 
	C183.015366,241.375381 183.268585,239.141739 186.085205,236.996460 
z"/>
<path fill="#DCECF7" opacity="1.000000" stroke="none" 
	d="
M343.768066,248.077515 
	C344.502167,249.380920 344.968781,250.583221 345.713928,251.962494 
	C345.211060,252.711899 344.429657,253.284317 343.331665,253.841522 
	C342.786560,251.737534 342.558014,249.648773 342.571167,247.326202 
	C343.042114,247.387070 343.271332,247.681732 343.768066,248.077515 
z"/>
<path fill="#000000" opacity="1.000000" stroke="none" 
	d="
M80.360924,251.379425 
	C78.548218,252.141983 77.079941,252.692001 75.251099,253.377075 
	C74.859406,248.830811 73.681335,244.662506 77.868706,242.103149 
	C78.689842,241.601257 81.193848,242.592667 82.031273,243.620697 
	C84.279633,246.380753 83.365639,249.032883 80.360924,251.379425 
z"/>
<path fill="#000000" opacity="1.000000" stroke="none" 
	d="
M204.258469,250.306122 
	C205.714569,249.363754 206.911514,248.682739 208.669098,247.682739 
	C206.975845,254.424927 207.486343,261.383026 200.479538,265.566376 
	C199.436035,259.414337 199.893997,254.525543 204.258469,250.306122 
z"/>
<path fill="#DCECF7" opacity="1.000000" stroke="none" 
	d="
M385.984955,261.883728 
	C385.242126,265.209229 383.396149,265.644165 380.754883,264.068329 
	C380.569092,257.690704 380.663940,251.608322 388.633759,248.447800 
	C388.633759,251.330612 388.633759,253.496872 387.991089,255.772217 
	C386.376434,255.604935 384.670441,254.915604 384.554901,255.120956 
	C383.930542,256.230927 383.204834,257.681152 383.469360,258.785156 
	C383.748932,259.951935 385.101257,260.861694 385.984955,261.883728 
z"/>
<path fill="#000000" opacity="1.000000" stroke="none" 
	d="
M385.994232,261.925293 
	C385.101257,260.861694 383.748932,259.951935 383.469360,258.785156 
	C383.204834,257.681152 383.930542,256.230927 384.554901,255.120956 
	C384.670441,254.915604 386.376434,255.604935 387.659973,256.015167 
	C387.643494,257.499817 387.315460,258.850647 386.700378,260.636993 
	C386.248932,261.376526 386.084534,261.680542 385.920166,261.984558 
	C385.920166,261.984558 386.003510,261.966858 385.994232,261.925293 
z"/>
<path fill="#DCECF7" opacity="1.000000" stroke="none" 
	d="
M386.208313,261.961975 
	C386.084534,261.680542 386.248932,261.376526 386.670166,260.999329 
	C386.783539,261.263855 386.640015,261.601624 386.208313,261.961975 
z"/>
<path fill="#000000" opacity="1.000000" stroke="none" 
	d="
M132.153748,256.003906 
	C130.110931,253.460571 130.434128,252.709610 134.837082,249.198898 
	C137.030426,252.552338 136.001251,254.666000 132.153748,256.003906 
z"/>
<path fill="#DCECF7" opacity="1.000000" stroke="none" 
	d="
M422.646484,255.172699 
	C422.961273,254.031830 422.947723,252.950485 423.473969,252.500793 
	C424.910767,251.273026 426.575226,250.311661 428.149475,249.244751 
	C428.107758,250.879364 428.557068,252.749466 427.911896,254.094650 
	C426.885101,256.235413 425.265411,258.569855 422.646484,255.172699 
z"/>
<path fill="#DCECF7" opacity="1.000000" stroke="none" 
	d="
M227.729218,252.691345 
	C227.165878,253.188766 226.773590,253.402710 226.381287,253.616638 
	C226.553925,252.935562 226.726578,252.254486 226.899231,251.573425 
	C227.232910,251.851562 227.566589,252.129715 227.729218,252.691345 
z"/>
</svg>