<svg xmlns="http://www.w3.org/2000/svg" xmlns:xlink="http://www.w3.org/1999/xlink" version="1.1" x="0px" y="0px" viewBox="0 0 100 100" enable-background="new 0 0 100 100" xml:space="preserve"><path fill="#3c8fcfec" d="M22.3,22.3C5.5,39,13.4,57.3,18.1,62c5.6,5.6,19.5-3.2,30.1-13.8C58.8,37.7,67.6,23.7,62,18.1C57.3,13.4,39,5.5,22.3,22.3z   M33.3,20.3c1-0.6,2-1,3-1.4c0.2-0.1,0.4,0.1,0.4,0.3l-0.9,4c-0.1,0.2-0.3,0.3-0.5,0.1l-2-2.6C33.1,20.6,33.2,20.4,33.3,20.3z   M30.8,22.2l3,3.8c0.1,0.1,0.1,0.3,0,0.4l-7.4,7.4c-0.1,0.1-0.3,0.1-0.4,0L22.1,31c-0.1-0.1-0.2-0.3-0.1-0.4  c1.1-1.5,2.4-3.1,3.9-4.6c1.5-1.5,3-2.8,4.5-3.8C30.6,22.1,30.7,22.1,30.8,22.2z M23.2,35.8l-3.9,1c-0.2,0.1-0.4-0.2-0.3-0.4  c0.4-1,0.8-1.9,1.4-2.9c0.1-0.1,0.3-0.2,0.4-0.1l2.6,1.9C23.4,35.4,23.4,35.7,23.2,35.8z M56.4,29.1c-2.5,4.8-6.7,10.2-11.9,15.4  c-5.2,5.2-10.7,9.4-15.4,11.9c-4.5,2.4-6.9,2.3-7.3,1.9c-1.6-1.6-6.1-9-4-18.3l8-2c0.2-0.1,0.5-0.2,0.6-0.4l11.2-11.2  c0.2-0.2,0.3-0.4,0.4-0.7l1.9-7.9c9.4-2.1,16.8,2.4,18.4,4C58.7,22.2,58.8,24.6,56.4,29.1z M55.2,55.2c-5.3,5.3-12.4,10.9-16,7.4  c-1-1-1-2.7,0-3.7c0.8-0.8,2.1-1,3.1-0.5c1.1-0.3,4.5-2.2,9.2-6.9s6.6-8,6.9-9.2c-0.5-1-0.4-2.2,0.5-3.1c1-1,2.7-1,3.7,0  C66.1,42.8,60.5,49.9,55.2,55.2z M61.9,61.9c-5.3,5.3-12.4,10.9-16,7.4c-1-1-1-2.7,0-3.7c0.8-0.8,2.1-1,3.1-0.5  c1.1-0.3,4.5-2.2,9.2-6.9s6.6-8,6.9-9.2c-0.5-1-0.4-2.2,0.5-3.1c1-1,2.7-1,3.7,0C72.8,49.5,67.2,56.6,61.9,61.9z M68.6,68.6  c-5.3,5.3-12.4,10.9-16,7.4c-1-1-1-2.7,0-3.7c0.8-0.8,2.1-1,3.1-0.5c1.1-0.3,4.5-2.2,9.2-6.9s6.6-8,6.9-9.2c-0.5-1-0.4-2.2,0.5-3.1  c1-1,2.7-1,3.7,0C79.6,56.2,74,63.3,68.6,68.6z M76.7,62.8 M75.3,75.3c-1.4,1.4-8.7,8.4-12.2,4.9c-1-1-1-2.7,0-3.7  c0.7-0.7,1.8-0.9,2.7-0.6c0.9-0.3,3.1-1.6,5.8-4.3s4-5,4.3-5.8c-0.3-0.9-0.1-1.9,0.6-2.7c1-1,2.7-1,3.7,0  C83.6,66.5,76.7,73.8,75.3,75.3z M87.3,87.3c-0.4,0.4-1,0.7-1.6,0.7c-6.7,0-12.8-3.1-13-3.2c-0.7-0.4-1.2-1.1-1.2-1.9s0.4-1.6,1.1-2  c0,0,1.9-1.2,4-3.3c0.9-0.9,2.3-0.9,3.2,0c0.9,0.9,0.9,2.3,0,3.2c-0.5,0.5-1,1-1.5,1.4c1.4,0.5,3.2,0.9,5,1.1  c-0.6-4.6-2.5-8.5-2.5-8.6c-0.6-1.1-0.1-2.5,1-3.1c1.1-0.6,2.5-0.1,3.1,1c0.1,0.3,3.2,6.3,3.2,13C87.9,86.2,87.7,86.8,87.3,87.3z"></path></svg>